Coordinates
version=1
nRows=13
nColumns=40
inDegrees=yes

Units are S.I. units (second, meters, Newtons, ...)
Angles are in degrees.

endheader
time	pelvis_tilt	pelvis_list	pelvis_rotation	pelvis_tx	pelvis_ty	pelvis_tz	hip_flexion_r	hip_adduction_r	hip_rotation_r	knee_angle_r	knee_angle_r_beta	ankle_angle_r	subtalar_angle_r	mtp_angle_r	hip_flexion_l	hip_adduction_l	hip_rotation_l	knee_angle_l	knee_angle_l_beta	ankle_angle_l	subtalar_angle_l	mtp_angle_l	lumbar_extension	lumbar_bending	lumbar_rotation	arm_flex_r	arm_add_r	arm_rot_r	elbow_flex_r	pro_sup_r	wrist_flex_r	wrist_dev_r	arm_flex_l	arm_add_l	arm_rot_l	elbow_flex_l	pro_sup_l	wrist_flex_l	wrist_dev_l
     33.74900000	     -7.12811202	     -5.83704042	     -4.90600396	      1.03741793	      0.92803358	      0.42653458	     41.67626912	     -3.86108798	     -7.98370593	     56.53222742	     56.53222742	     -0.20776217	    -17.01796395	      6.73439881	     14.87265303	     -7.10077781	     -4.60112584	     23.85422088	     23.85422088	     17.17172489	    -14.97270273	      5.97968821	    -13.01101155	      5.84507803	      4.42113529	     17.56960838	    -13.61277470	     -4.16335387	     48.22928012	     46.40650642	      0.00000000	      0.00000000	     10.46268842	    -15.31493235	     -3.75404801	     69.78489724	     47.17769187	      0.00000000	      0.00000000
     33.76050000	     -7.09755041	     -5.88390039	     -5.30102989	      1.03600932	      0.92854164	      0.42785560	     41.97807919	     -3.28500045	     -7.91178466	     53.02319836	     53.02319836	     -1.10814676	    -16.00978996	      3.01861927	     13.92925683	     -7.27320839	     -5.19672745	     23.21163051	     23.21163051	     17.17337925	    -14.66577666	      5.27836862	    -13.16941787	      5.84042304	      3.89463640	     18.31308561	    -13.15931510	     -4.30138713	     40.41052698	     46.64573692	      0.00000000	      0.00000000	     10.94758921	    -16.50846893	     -3.51061373	     72.78162090	     47.25088220	      0.00000000	      0.00000000
     33.77200000	     -7.22941197	     -5.98645568	     -5.58242073	      1.03478179	      0.92877487	      0.42912704	     42.30286690	     -2.68502575	     -7.90110479	     49.42307469	     49.42307469	     -0.78591956	    -14.29263379	      2.89042174	     13.16185341	     -7.45231228	     -5.53511773	     22.55544090	     22.55544090	     17.36112906	    -14.41713648	      5.25905083	    -13.20985011	      6.04448299	      3.90306936	     16.45713116	    -13.53830469	     -4.28659280	     38.99680530	     46.67986866	      0.00000000	      0.00000000	     12.23301479	    -16.91042865	     -3.99638022	     74.03602410	     47.31577486	      0.00000000	      0.00000000
     33.78350000	     -7.14153790	     -6.03509533	     -5.81720489	      1.03388152	      0.92917230	      0.43029321	     42.13051687	     -2.25914407	     -8.03642447	     45.54052371	     45.54052371	     -0.52836871	    -12.04955199	      2.43241040	     12.09588701	     -7.54636642	     -5.97767518	     21.82210483	     21.82210483	     17.56811154	    -14.00423806	      5.09568948	    -13.53154981	      6.07653088	      4.31839211	     14.75086106	    -14.18283498	     -4.27133472	     36.60808524	     46.75059341	      0.00000000	      0.00000000	     13.58311448	    -16.90612250	     -4.13925879	     76.07022809	     47.37387033	      0.00000000	      0.00000000
     33.79500000	     -7.16304672	     -5.96101386	     -5.97623652	      1.03329640	      0.92902787	      0.43147577	     41.77857985	     -1.92770033	     -8.13307130	     41.27833779	     41.27833779	     -1.24760844	    -10.34630558	     -0.80472412	     11.15720427	     -7.51196377	     -6.42483567	     21.07058826	     21.07058826	     17.41682591	    -13.70316788	      3.93983673	    -13.47998950	      6.06148431	      3.45683070	     15.28856424	    -13.66532208	     -4.73291680	     29.90487802	     46.96017456	      0.00000000	      0.00000000	     13.76959673	    -17.95551722	     -4.69199505	     79.15750837	     47.53605856	      0.00000000	      0.00000000
     33.80650000	     -7.24746401	     -5.97255452	     -6.04189005	      1.03289036	      0.92867669	      0.43267410	     41.33712450	     -1.53626473	     -8.34394886	     37.09283566	     37.09283566	     -0.95492445	     -8.26335977	     -0.41736743	     10.33334230	     -7.55001050	     -6.66609330	     20.43830011	     20.43830011	     17.69122307	    -13.32663819	      3.80646344	    -13.39863050	      6.18310066	      3.31951125	     13.41068590	    -13.96336379	     -4.73604340	     28.80647357	     46.98375109	      0.00000000	      0.00000000	     14.91590473	    -18.35327088	     -4.84212941	     80.49325046	     47.57960212	      0.00000000	      0.00000000
     33.81800000	     -7.23575319	     -5.85926935	     -6.04481652	      1.03285970	      0.92816066	      0.43385099	     40.62444385	     -1.33658139	     -8.69493945	     32.95618820	     32.95618820	     -0.66356983	     -6.03539100	      0.13274260	      9.39187223	     -7.43373808	     -6.93614605	     19.78677267	     19.78677267	     17.98235607	    -12.88443700	      3.56594773	    -13.37349715	      6.13744869	      3.29317457	     11.47815916	    -14.26757150	     -4.70640204	     27.51089097	     47.01438174	      0.00000000	      0.00000000	     16.07123088	    -18.70075162	     -4.80378624	     82.15898951	     47.62005218	      0.00000000	      0.00000000
     33.82950000	     -7.13489087	     -5.72820813	     -5.96776832	      1.03327299	      0.92745201	      0.43499372	     39.66261344	     -1.22388984	     -9.24822363	     29.02979352	     29.02979352	     -0.29087432	     -3.74739544	      0.95793338	      8.31171788	     -7.28722930	     -7.20552916	     19.08362495	     19.08362495	     18.26036928	    -12.29568417	      3.18262272	    -13.38338921	      6.10647066	      3.31579213	      9.53541090	    -14.54049133	     -4.64291146	     26.17336133	     47.04374225	      0.00000000	      0.00000000	     17.13100491	    -19.02098705	     -4.52345684	     84.10684949	     47.65127310	      0.00000000	      0.00000000
     33.84100000	     -7.02681679	     -5.43520958	     -5.85618571	      1.03397438	      0.92630580	      0.43624009	     38.78348509	     -1.34338123	     -9.99708145	     25.77615718	     25.77615718	      0.44754809	     -1.30771811	      2.74025452	      7.21882903	     -6.99630566	     -7.62072279	     18.37140831	     18.37140831	     18.44580876	    -11.53605060	      2.22841707	    -13.35761703	      5.80447168	      3.29263918	      7.58148782	    -14.66035390	     -4.47463458	     24.77176964	     47.05927733	      0.00000000	      0.00000000	     18.08907161	    -19.73048573	     -3.63969472	     86.68877140	     47.66750571	      0.00000000	      0.00000000
     33.85250000	     -7.07949028	     -5.17844343	     -5.66404316	      1.03483305	      0.92470756	      0.43763918	     37.93978297	     -1.29415325	    -10.42048654	     22.73965309	     22.73965309	      0.61563285	     -0.16794410	      3.79092547	      6.41657039	     -6.73593431	     -7.67801248	     17.87515532	     17.87515532	     18.78681584	    -11.15945197	      1.87627153	    -12.98580803	      5.64707224	      2.90081007	      5.61688368	    -14.59174945	     -4.41711930	     24.01704407	     47.06396796	      0.00000000	      0.00000000	     19.04782991	    -20.20403212	     -3.73138364	     87.85916589	     47.70500978	      0.00000000	      0.00000000
     33.86400000	     -6.82899862	     -5.00398905	     -5.41703250	      1.03626762	      0.92338425	      0.43902388	     36.73829287	     -1.31909298	    -11.30629643	     20.34267382	     20.34267382	      1.04047507	      1.33849488	      5.17187163	      5.11824199	     -6.54243486	     -7.85239600	     17.14633091	     17.14633091	     19.15636993	    -10.45952948	      1.30421112	    -12.97239703	      5.54309140	      2.91489841	      3.39297136	    -14.74771464	     -4.31292779	     23.33229626	     47.05656553	      0.00000000	      0.00000000	     19.90826894	    -20.32289438	     -3.34141655	     89.86084600	     47.73055791	      0.00000000	      0.00000000
     33.87550000	     -6.69898863	     -4.73431183	     -5.17493741	      1.03785172	      0.92155305	      0.44064230	     35.85006386	     -1.45106761	    -12.12607748	     18.84952475	     18.84952475	      1.64181641	      2.46577144	      6.57748564	      4.01312809	     -6.29754043	     -8.06422716	     16.54395015	     16.54395015	     19.48228291	     -9.74405147	      0.59629499	    -12.75753373	      5.28997469	      2.91261867	      1.04932135	    -14.73094190	     -4.17126662	     23.05272454	     47.02293575	      0.00000000	      0.00000000	     20.77494898	    -20.65469353	     -2.77980106	     91.90018232	     47.75213358	      0.00000000	      0.00000000
     33.88700000	     -6.65024763	     -4.43999066	     -4.88892628	      1.03952106	      0.91943866	      0.44233723	     35.08446326	     -1.60699205	    -12.75047827	     17.91876699	     17.91876699	      2.02080269	      3.01360622	      7.46143817	      3.05376012	     -6.04566825	     -8.18069648	     16.04078881	     16.04078881	     19.89479841	     -9.11039020	      0.00931808	    -12.46814394	      5.05807073	      2.82862002	     -1.33027510	    -14.64094125	     -4.04575367	     22.93032729	     46.98323338	      0.00000000	      0.00000000	     21.61859322	    -20.90088235	     -2.37121498	     93.61397695	     47.77605500	      0.00000000	      0.00000000
